<?xml version="1.0" encoding="UTF-8"?>
<svg width="72px" height="72px" viewBox="0 0 72 72" version="1.1" xmlns="http://www.w3.org/2000/svg" xmlns:xlink="http://www.w3.org/1999/xlink">
    <!-- Generator: Sketch 51 (57462) - http://www.bohemiancoding.com/sketch -->
    <title>Accordion Copy 138</title>
    <desc>Created with Sketch.</desc>
    <defs></defs>
    <g id="Accordion-Copy-138" stroke="none" stroke-width="1" fill="none" fill-rule="evenodd">
        <path d="M57,30 C57.406252,30 57.7929669,30.0781242 58.1601562,30.234375 C58.5273456,30.3906258 58.8476549,30.6054674 59.1210938,30.8789062 C59.3945326,31.1523451 59.6093742,31.4726544 59.765625,31.8398438 C59.9218758,32.2070331 60,32.593748 60,33 L60,54 L48,54 L48,60 L24,60 L24,54 L12,54 L12,33 C12,32.593748 12.0781242,32.2070331 12.234375,31.8398438 C12.3906258,31.4726544 12.6054674,31.1523451 12.8789062,30.8789062 C13.1523451,30.6054674 13.4726544,30.3906258 13.8398438,30.234375 C14.2070331,30.0781242 14.593748,30 15,30 L24,30 L24,12 L48,12 L48,30 L57,30 Z M27,30 L45,30 L45,15 L27,15 L27,30 Z M45,45 L27,45 L27,57 L45,57 L45,45 Z M57,33 L15,33 L15,51 L24,51 L24,42 L48,42 L48,51 L57,51 L57,33 Z M19.5,36 C19.906252,36 20.257811,36.148436 20.5546875,36.4453125 C20.851564,36.742189 21,37.093748 21,37.5 C21,37.906252 20.851564,38.257811 20.5546875,38.5546875 C20.257811,38.851564 19.906252,39 19.5,39 C19.093748,39 18.742189,38.851564 18.4453125,38.5546875 C18.148436,38.257811 18,37.906252 18,37.5 C18,37.093748 18.148436,36.742189 18.4453125,36.4453125 C18.742189,36.148436 19.093748,36 19.5,36 Z" id="" fill="#B3B3B3"></path>
    </g>
</svg>